<svg width="50" height="40" viewBox="0 0 50 40" fill="none" xmlns="http://www.w3.org/2000/svg">
<path d="M43.1656 0.000593815C41.8379 -0.0190462 38.7538 0.431674 33.6045 3.87803C30.7981 3.17663 27.812 2.83051 24.8209 2.83051C21.5298 2.83051 18.2039 3.24843 15.1023 4.09927C7.70936 -0.944206 4.4462 0.0893538 4.4462 0.0893538C2.31588 5.41667 3.63232 9.36087 4.03244 10.3404C1.52856 13.0428 0 16.4935 0 20.7228C0 23.9157 0.3634 26.7794 1.25124 29.2689C1.30048 29.461 1.28452 29.4182 1.36748 29.5827C1.56308 30.098 1.78056 30.5983 2.025 31.0814C2.10876 31.2552 2.185 31.3839 2.185 31.3839C4.6808 36.0362 9.60084 39.0414 18.3548 39.985L31.5946 40C40.9302 39.0743 45.41 36.0601 47.4743 31.3764L47.6056 31.0714C47.8012 30.5983 47.9717 30.106 48.4381 28.4489C48.9044 26.7918 49.1131 23.922 49.1131 20.7215C49.1131 16.1313 47.3891 12.4584 44.5894 9.66415C45.0786 8.08495 45.7322 4.57783 43.9369 0.0880738C43.9369 0.0880738 43.6852 0.00827382 43.1656 0.000553815L43.1656 0.000593815ZM32.732 16.8453C34.8877 16.8406 36.7343 17.2108 38.1207 18.6653V18.6665C39.8554 20.4882 40.8706 22.6875 40.8706 25.0576C40.8706 36.124 33.7534 36.425 24.9746 36.425C16.1944 36.425 9.07864 34.8915 9.07864 25.0576C9.07864 22.7032 10.079 20.517 11.7924 18.7028C14.6504 15.6792 19.487 17.2803 24.9747 17.2803C27.7916 17.2798 30.4372 16.8503 32.7321 16.8453L32.732 16.8453ZM16.3797 20.104C14.5531 20.104 13.0722 22.5737 13.0722 25.6215C13.0722 28.6697 14.553 31.1402 16.3797 31.1402C18.2064 31.1402 19.6872 28.6697 19.6872 25.6215C19.6872 22.5741 18.2064 20.1062 16.3797 20.104ZM34.1257 20.104C32.299 20.104 30.8182 22.5737 30.8182 25.6215C30.8182 28.6697 32.299 31.1402 34.1257 31.1402C35.9523 31.1402 37.4332 28.6697 37.4332 25.6215C37.4332 22.5741 35.9524 20.1062 34.1257 20.104Z" fill="#E8BE3A"/>
</svg>
